# xmcd
#
# Track frame offsets:
#	150
#	11225
#	23037
#	34850
#	44725
#	57450
#	69525
#	79150
#
# Disc length: 1155 seconds
#
# Revision: 1
# Processed by: cddbd v1.4PL0 Copyright (c) Steve Scherf et al.
# Submitted via: audiograbber 1.82.00
#
DISCID=6c048108
DTITLE=Dolly Parton - Honky Tonk Angels
DYEAR=1900
DGENRE=
TTITLE0=Honky Tonk Angels
TTITLE1=Makin' Believe
TTITLE2=Letter To Heaven
TTITLE3=Release Me
TTITLE4=Little Blossom
TTITLE5=Two Little Orphans
TTITLE6=Girl Left Alone
TTITLE7=Puppy Love
EXTD=
EXTT0=
EXTT1=
EXTT2=
EXTT3=
EXTT4=
EXTT5=
EXTT6=
EXTT7=
PLAYORDER=
